Coordinates
version=1
nRows=25
nColumns=24
inDegrees=yes

Units are S.I. units (second, meters, Newtons, ...)
If the header above contains a line with 'inDegrees', this indicates whether rotational values are in degrees (yes) or radians (no).

endheader
time	pelvis_tilt	pelvis_list	pelvis_rotation	pelvis_tx	pelvis_ty	pelvis_tz	hip_flexion_r	hip_adduction_r	hip_rotation_r	knee_angle_r	ankle_angle_r	subtalar_angle_r	mtp_angle_r	hip_flexion_l	hip_adduction_l	hip_rotation_l	knee_angle_l	ankle_angle_l	subtalar_angle_l	mtp_angle_l	lumbar_extension	lumbar_bending	lumbar_rotation
0.700000	9.836418	2.057815	-180.152486	0.264939	0.796991	-1.204197	35.168835	-16.779174	-22.221333	-45.401192	13.740684	6.765510	0.000000	36.794003	-20.559016	-17.491275	-46.743521	14.966381	10.571319	0.000000	-2.979712	2.165108	0.301339
0.705000	9.937424	1.953198	-180.160755	0.265813	0.794473	-1.203999	35.796094	-17.044335	-21.897675	-46.260602	14.127885	6.879988	0.000000	37.359362	-20.694049	-17.618559	-47.615037	15.363669	10.934957	0.000000	-3.006238	2.088394	0.269042
0.710000	9.829087	1.829649	-179.840999	0.266566	0.792070	-1.204485	36.125946	-17.457264	-21.916557	-47.224861	14.657920	6.826619	0.000000	37.761302	-20.681463	-17.545911	-48.268283	15.649027	11.257886	0.000000	-3.230241	1.794448	-0.022651
0.715000	9.882451	1.813066	-179.874315	0.267334	0.789684	-1.204495	36.695037	-17.618628	-21.703464	-48.092221	15.040268	6.867407	0.000000	38.261046	-20.914296	-17.630373	-49.067426	16.013922	11.569659	0.000000	-3.311136	1.826940	-0.056647
0.720000	9.988323	1.864870	-180.237302	0.268064	0.787336	-1.203788	37.370559	-17.576627	-21.250440	-48.824905	15.231362	6.895366	0.000000	38.720149	-21.319023	-17.914188	-49.934377	16.469321	11.780953	0.000000	-3.340638	2.094542	0.235760
0.725000	9.966078	1.907433	-180.267557	0.268760	0.785047	-1.203868	37.827774	-17.644168	-21.035121	-49.650303	15.565187	6.792999	0.000000	39.165001	-21.618716	-17.930532	-50.798781	16.864597	12.155081	0.000000	-3.463985	2.126415	0.374007
0.730000	10.050184	1.852416	-180.280595	0.269572	0.782466	-1.203606	38.436454	-17.849770	-20.784133	-50.499233	15.898123	6.695050	0.000000	39.716507	-21.774828	-17.946613	-51.655626	17.284455	12.483281	0.000000	-3.524075	2.148523	0.283261
0.735000	9.901658	1.730937	-179.925885	0.270186	0.779996	-1.204052	38.715499	-18.260363	-20.760755	-51.465713	16.432196	6.549142	0.000000	40.112765	-21.717357	-17.709021	-52.412316	17.571706	12.774258	0.000000	-3.771484	1.862805	0.040537
0.740000	10.018047	1.796703	-180.243632	0.270880	0.777475	-1.203426	39.336255	-18.155962	-20.094618	-52.086717	16.825134	7.020226	0.000000	40.606334	-22.084912	-17.874516	-53.242622	17.992355	12.828533	0.000000	-3.799253	2.132969	0.290620
0.745000	10.033989	1.818764	-180.269033	0.271590	0.774911	-1.203250	39.905323	-18.306273	-20.088688	-53.021053	17.003417	6.494950	0.000000	41.098300	-22.305886	-17.826919	-54.063017	18.389655	13.044925	0.000000	-3.874318	2.147844	0.522613
0.750000	10.052049	1.816260	-180.240097	0.272246	0.772380	-1.203111	40.407824	-18.459111	-19.889041	-53.851805	17.346580	6.377383	0.000000	41.607144	-22.458096	-17.706837	-54.879975	18.744243	13.188064	0.000000	-4.003088	2.195140	0.444831
0.755000	10.036663	1.795096	-180.178407	0.272906	0.769810	-1.203060	40.873258	-18.635636	-19.686012	-54.692892	17.692728	6.291312	0.000000	42.081777	-22.574989	-17.563261	-55.675969	19.099326	13.327002	0.000000	-4.112592	2.232373	0.342002
0.760000	10.008805	1.847116	-180.190235	0.273513	0.767168	-1.203069	41.310148	-18.699764	-19.477326	-55.500753	18.047644	6.256924	0.000000	42.547866	-22.827104	-17.456390	-56.519158	19.509981	13.539646	0.000000	-4.273154	2.223328	0.555211
0.765000	10.060043	1.780796	-180.105596	0.274223	0.764387	-1.202847	41.852245	-18.947697	-19.262477	-56.344481	18.416736	6.210469	0.000000	43.096445	-22.867915	-17.312102	-57.315249	19.893084	13.677927	0.000000	-4.359686	2.227421	0.398772
0.770000	10.098952	1.759855	-180.085871	0.274900	0.761594	-1.202758	42.397370	-19.114868	-19.051637	-57.195388	18.773476	6.164128	0.000000	43.625662	-23.019966	-17.213125	-58.125767	20.234857	13.830204	0.000000	-4.460248	2.234016	0.360013
0.775000	10.124969	1.789045	-180.102329	0.275665	0.758779	-1.202596	42.934605	-19.212889	-18.827634	-58.034066	19.140340	6.113671	0.000000	44.165689	-23.212426	-17.056328	-58.986899	20.569763	13.922059	0.000000	-4.541226	2.260950	0.562425
0.780000	10.277979	1.769356	-179.529836	0.276758	0.756003	-1.203659	43.443789	-19.578314	-19.012110	-58.918276	19.601070	5.818142	0.000000	45.029607	-23.076893	-16.492454	-59.621805	20.620276	14.170453	0.000000	-4.537219	2.027059	-0.039087
0.785000	10.217222	1.775770	-180.013137	0.277001	0.753045	-1.202498	43.990068	-19.552832	-18.496528	-59.689592	19.886154	6.012994	0.000000	45.284311	-23.504897	-16.775437	-60.653491	21.220322	14.208752	0.000000	-4.719166	2.317917	0.409528
0.790000	10.322907	1.720405	-179.376577	0.278155	0.750161	-1.203746	44.447062	-19.977752	-18.678627	-60.588436	20.397402	5.773460	0.000000	46.104254	-23.309321	-16.203938	-61.229473	21.355353	14.508331	0.000000	-4.758473	1.961643	-0.148391
0.795000	10.293348	1.764139	-179.870142	0.278392	0.747021	-1.202611	44.988013	-19.887940	-18.000057	-61.297961	20.881976	6.581044	0.000000	46.404922	-23.805438	-16.480914	-62.241935	22.026175	14.688342	0.000000	-4.870088	2.279805	0.351154
0.800000	10.362889	1.671307	-179.295553	0.279596	0.744130	-1.203677	45.500185	-20.387140	-18.345089	-62.298379	21.183617	5.924976	0.000000	47.174832	-23.598240	-15.958798	-62.909635	22.020449	14.861708	0.000000	-4.962607	1.980455	-0.279269
0.805000	10.384055	1.842039	-179.844411	0.279694	0.741092	-1.202673	46.041263	-20.123389	-17.739201	-62.948158	21.612606	6.561860	0.000000	47.531719	-24.220728	-16.132299	-63.895670	22.665138	14.966195	0.000000	-5.020516	2.415471	0.321846
0.810000	10.453705	1.754886	-179.760299	0.280485	0.737937	-1.202473	46.676109	-20.456251	-17.751950	-63.881259	21.803620	6.132382	0.000000	48.102109	-24.244902	-15.999931	-64.677458	22.995351	15.078174	0.000000	-5.078251	2.321229	0.304821
0.815000	10.574596	1.804397	-179.775952	0.281297	0.734763	-1.202563	47.259838	-20.488559	-17.374741	-64.612803	22.275638	6.569323	0.000000	48.755557	-24.480512	-15.867327	-65.436188	23.363419	15.194661	0.000000	-5.065290	2.386626	0.374490
0.820000	10.534446	1.813060	-179.747914	0.281772	0.731751	-1.202790	47.676254	-20.635834	-17.237006	-65.432832	22.690057	6.690033	0.000000	49.083392	-24.652514	-15.771002	-65.814054	24.143578	15.621973	0.000000	-5.201801	2.453667	0.163508
